<svg width="22" height="46" viewBox="0 0 22 46" fill="none" xmlns="http://www.w3.org/2000/svg">
<path d="M14.0618 45.6488C10.9737 45.6488 7.91526 45.6488 4.82345 45.6488C4.81727 45.4962 4.8049 45.3511 4.8049 45.2072C4.80367 37.9842 4.80367 30.7612 4.80367 23.5381C4.80367 23.4389 4.79378 23.3384 4.8049 23.2417C4.8321 23.0048 4.73197 22.9403 4.50079 22.9415C3.16813 22.9514 1.83424 22.9465 0.501585 22.9465C0.394033 22.9465 0.286483 22.9465 0.151733 22.9465C0.151733 20.3614 0.151733 17.7962 0.151733 15.195C0.267939 15.195 0.374254 15.195 0.479334 15.195C1.81199 15.195 3.14588 15.1876 4.47854 15.2025C4.74804 15.2049 4.80985 15.1194 4.80861 14.8651C4.80243 13.0813 4.78265 11.2976 4.82345 9.51509C4.86177 7.82811 5.15229 6.18082 5.91257 4.65385C6.56653 3.34024 7.53203 2.31192 8.82513 1.60488C10.0243 0.949933 11.3161 0.574083 12.6649 0.461204C13.8887 0.358248 15.1225 0.343364 16.3525 0.325998C17.8026 0.306151 19.254 0.324757 20.7053 0.325998C20.8129 0.325998 20.9204 0.325998 21.0514 0.325998C21.0514 2.89741 21.0514 5.44649 21.0514 8.03402C20.9253 8.03402 20.8104 8.03402 20.6954 8.03402C19.5111 8.03402 18.3256 8.02038 17.1412 8.03898C16.5046 8.04891 15.8679 8.09977 15.2597 8.33421C14.5798 8.59718 14.2571 9.12932 14.1508 9.81156C14.0976 10.1514 14.089 10.5 14.0853 10.8448C14.0692 12.182 14.0667 13.5192 14.0507 14.8551C14.0482 15.1032 14.1014 15.2049 14.3894 15.2025C16.5219 15.1876 18.6544 15.195 20.7881 15.1963C20.8759 15.1963 20.9637 15.1963 21.1034 15.1963C20.8339 17.7764 20.5668 20.3391 20.2949 22.9465C20.175 22.9465 20.0612 22.9465 19.9463 22.9465C18.0795 22.9465 16.2141 22.9489 14.3474 22.9427C14.1471 22.9427 14.0593 22.97 14.0593 23.2132C14.0667 30.6297 14.0655 38.045 14.0643 45.4615C14.0618 45.5185 14.0618 45.5756 14.0618 45.6488Z" fill="#EF570C"/>
</svg>
