<svg width="41" height="41" viewBox="0 0 41 41" fill="none" xmlns="http://www.w3.org/2000/svg">
<path d="M40.187 28.4738C40.1789 35.0783 35.2603 40.0739 28.6558 40.1211C23.0402 40.1617 17.4232 40.1698 11.8075 40.1252C5.25164 40.0725 0.215517 35.1161 0.100692 28.5548C0.000725665 22.8594 -0.0235927 17.1627 0.0223376 11.4674C0.0736715 5.10738 4.9612 0.159067 11.3144 0.0645048C17.0895 -0.0206014 22.8686 -0.0233026 28.6437 0.0672071C34.7497 0.16312 39.6994 5.01552 39.9655 11.1472C40.0992 14.1894 40.1897 25.7463 40.187 28.4738ZM20.1466 36.1887C20.1466 36.1914 20.1466 36.1927 20.1466 36.1954C23.1955 36.1954 26.2472 36.2616 29.2935 36.1792C33.2489 36.0712 36.2924 33.1857 36.3424 29.2316C36.4208 23.0553 36.3613 16.8723 36.1654 10.6974C36.0452 6.91893 33.1124 3.89834 29.3907 3.80377C23.0956 3.64302 16.791 3.64842 10.4958 3.80512C6.89162 3.89428 3.94127 6.8014 3.86427 10.3934C3.72783 16.771 3.7535 23.158 3.9764 29.5329C4.10608 33.2559 7.25501 36.0563 10.997 36.1711C14.0459 36.263 17.0976 36.1887 20.1466 36.1887Z" fill="#EF570C"/>
<path d="M20.148 30.4082C14.3553 30.3677 9.70016 25.7112 9.72988 19.9861C9.7596 14.2219 14.3905 9.60722 20.0791 9.67206C25.8055 9.73826 30.4742 14.465 30.458 20.1779C30.4417 25.8301 25.7879 30.4474 20.148 30.4082ZM26.7362 19.924C26.716 16.232 23.6522 13.2276 19.948 13.2695C16.2655 13.3114 13.38 16.2955 13.4232 20.0158C13.4664 23.6646 16.4857 26.6257 20.148 26.6109C23.8332 26.596 26.7565 23.6281 26.7362 19.924Z" fill="#EF570C"/>
<path d="M33.0665 9.31002C33.0584 10.6028 31.9736 11.6835 30.6822 11.6835C29.3488 11.6835 28.206 10.5474 28.2208 9.23707C28.2357 7.94427 29.3124 6.87436 30.6092 6.86625C31.9358 6.85815 33.0746 7.99155 33.0665 9.31002Z" fill="#EF570C"/>
</svg>
