<svg width="36" height="48" viewBox="0 0 36 48" fill="none" xmlns="http://www.w3.org/2000/svg">
<path d="M13.3442 47.0229C13.0971 47.0089 12.8512 46.9885 12.6041 46.9835C10.6223 46.9415 8.63919 46.9097 6.65735 46.8602C5.98791 46.8436 5.31721 46.7966 4.6503 46.7356C3.88883 46.6657 3.21561 46.3428 2.59282 45.9158C1.58425 45.2218 0.821522 44.3257 0.534081 43.1055C0.389099 42.4915 0.314717 41.8535 0.275635 41.2218C0.188646 39.7855 0.111741 38.3466 0.0915701 36.9078C0.0663559 35.2236 0.0903094 33.5395 0.123088 31.8553C0.143259 30.8182 0.191166 29.7797 0.276895 28.7463C0.351276 27.8452 0.363884 26.9198 0.783701 26.086C1.52122 24.6256 2.6672 23.6519 4.24687 23.2325C4.56709 23.1473 4.90874 23.1384 5.24283 23.1168C10.1243 22.808 15.0108 22.8677 19.8973 22.883C22.5587 22.8906 25.22 22.9325 27.8801 22.9859C28.9631 23.0075 30.046 23.0774 31.1252 23.174C32.3847 23.2872 33.3768 23.943 34.2051 24.8671C34.8027 25.5344 35.2339 26.3021 35.3877 27.1969C35.4734 27.6914 35.5213 28.1934 35.5541 28.6942C35.7381 31.5312 35.7205 34.3733 35.6902 37.2141C35.6738 38.7394 35.5667 40.2621 35.5125 41.7874C35.4204 44.3676 33.4638 46.2119 31.6068 46.6466C31.0433 46.7788 30.4495 46.8119 29.8683 46.8284C27.6066 46.8945 25.3436 46.9364 23.0806 46.9885C22.8966 46.9924 22.7125 47.0114 22.5284 47.0241C19.4674 47.0229 16.4064 47.0229 13.3442 47.0229ZM20.7533 26.6491C19.9969 26.6491 19.2808 26.6491 18.5849 26.6491C18.5849 31.9888 18.5849 37.3196 18.5849 42.6835C19.3275 42.6835 20.031 42.6835 20.7559 42.6835C20.7559 42.4254 20.7559 42.1623 20.7559 41.8636C20.8731 41.9602 20.9664 42.0276 21.0484 42.1064C21.4379 42.4852 21.9006 42.7025 22.4389 42.7547C23.1752 42.8271 23.8534 42.7648 24.33 42.0734C24.6061 41.673 24.7031 41.2319 24.7284 40.768C24.7687 40.0143 24.809 39.2592 24.8002 38.5042C24.7763 36.515 24.741 34.5258 24.6754 32.5366C24.6565 31.9494 24.4031 31.4245 23.9316 31.0457C23.2193 30.475 22.2801 30.4851 21.4619 31.0686C21.2236 31.2389 21.0055 31.4384 20.7521 31.6469C20.7533 29.9678 20.7533 28.3116 20.7533 26.6491ZM28.6277 37.0476C29.3829 37.0476 30.0687 37.0476 30.7546 37.0476C31.4467 37.0476 32.1376 37.0476 32.8789 37.0476C32.8183 35.6304 32.8158 34.2424 32.6771 32.8696C32.5952 32.0638 32.1779 31.3596 31.4303 30.9237C30.1872 30.1992 28.5622 30.353 27.4981 31.3202C27.0304 31.746 26.6207 32.2189 26.5917 32.9065C26.5652 33.5192 26.5211 34.1305 26.5123 34.7432C26.4871 36.6371 26.3698 38.536 26.5715 40.4248C26.69 41.5319 27.2914 42.3479 28.3403 42.7661C29.0186 43.0368 29.7422 43.0483 30.4356 42.8932C31.4379 42.6695 32.2359 42.1255 32.5259 41.0641C32.6633 40.5621 32.725 40.0359 32.7893 39.5173C32.836 39.1321 32.8309 38.7394 32.8499 38.3403C32.0632 38.3403 31.3093 38.3403 30.4986 38.3403C30.4986 38.8525 30.51 39.3533 30.4949 39.8541C30.486 40.1439 30.4532 40.4515 30.1847 40.6307C29.5985 41.0209 28.8358 40.6981 28.7752 39.999C28.6883 39.0305 28.6744 38.0556 28.6277 37.0476ZM14.3099 30.8271C14.3099 30.93 14.3099 31.0152 14.3099 31.1016C14.3099 33.889 14.3099 36.6752 14.3086 39.4626C14.3086 39.5541 14.3174 39.6889 14.2657 39.7295C13.9203 40.0041 13.5786 40.2964 13.1954 40.5074C12.9016 40.6688 12.5789 40.4693 12.5474 40.1274C12.4932 39.549 12.4667 38.9669 12.4642 38.386C12.4541 35.9532 12.4566 33.5217 12.4541 31.0889C12.4541 31.005 12.4541 30.9211 12.4541 30.8296C11.7103 30.8296 10.9891 30.8296 10.2705 30.8296C10.2617 30.8576 10.2542 30.8715 10.2542 30.8855C10.2844 34.3797 10.2932 37.8725 10.3601 41.3654C10.379 42.3428 11.0005 42.9631 12.0961 42.7813C12.7957 42.6644 13.3442 42.2831 13.8484 41.8115C13.9871 41.6819 14.1245 41.5497 14.3136 41.3692C14.3136 41.8611 14.3136 42.2793 14.3136 42.6924C15.0335 42.6924 15.7244 42.6924 16.4228 42.6924C16.4228 38.7305 16.4228 34.7826 16.4228 30.8258C15.7193 30.8271 15.0272 30.8271 14.3099 30.8271ZM7.76299 29.0476C8.64044 29.0476 9.48764 29.0476 10.3311 29.0476C10.3311 28.229 10.3311 27.4371 10.3311 26.6516C7.81468 26.6516 5.31217 26.6516 2.80966 26.6516C2.80966 27.4537 2.80966 28.2443 2.80966 29.0616C3.66946 29.0616 4.5154 29.0616 5.38655 29.0616C5.38655 33.6247 5.38655 38.1611 5.38655 42.6962C6.19088 42.6962 6.96874 42.6962 7.76299 42.6962C7.76299 38.1547 7.76299 33.6234 7.76299 29.0476Z" fill="#EF570C"/>
<path d="M13.0164 0.718262C13.0719 0.73987 13.1273 0.761478 13.1954 0.786899C12.7365 2.2931 12.2776 3.7993 11.8187 5.30551C11.1241 7.58324 10.4282 9.86224 9.73603 12.1412C9.70325 12.2518 9.69317 12.3726 9.69317 12.4882C9.69065 14.9999 9.69191 17.5115 9.69191 20.0231C9.69191 20.1159 9.69191 20.2086 9.69191 20.3141C8.70729 20.3141 7.74159 20.3141 6.74311 20.3141C6.74311 20.2214 6.74311 20.1298 6.74311 20.0383C6.74311 17.9525 6.7242 15.8654 6.75319 13.7796C6.76454 12.9827 6.63847 12.2315 6.4065 11.4752C5.33489 7.98362 4.28472 4.48567 3.22699 0.990268C3.20934 0.93307 3.20304 0.872059 3.19043 0.807235C3.27112 0.775459 3.34045 0.747496 3.40853 0.719533C4.33011 0.719533 5.25169 0.719533 6.17327 0.719533C6.40776 1.66774 6.63721 2.61595 6.87674 3.56289C7.27765 5.14408 7.68612 6.72273 8.09459 8.30139C8.11476 8.38146 8.16645 8.45264 8.20427 8.52891C8.30008 8.38401 8.34295 8.25436 8.37573 8.12217C8.93926 5.79232 9.50532 3.46247 10.06 1.13008C10.1142 0.902565 10.1912 0.742412 10.4395 0.719533C11.2968 0.718262 12.1566 0.718262 13.0164 0.718262Z" fill="#EF570C"/>
<path d="M13.1563 12.8304C13.1563 11.342 13.1525 9.85488 13.1614 8.36647C13.1626 8.20123 13.2004 8.02583 13.2635 7.87203C13.7476 6.6963 14.5746 5.90189 15.8265 5.61844C16.9851 5.35661 18.1134 5.40745 19.1598 6.04933C19.6767 6.36582 20.0789 6.79798 20.3777 7.32674C20.6525 7.81356 20.8164 8.30927 20.8114 8.90031C20.7887 11.2441 20.8252 13.588 20.8278 15.9318C20.829 16.5127 20.8416 17.1024 20.7508 17.6731C20.5239 19.0993 19.7171 20.0818 18.3303 20.4809C17.0923 20.8381 15.8568 20.7834 14.7373 20.0602C14.0691 19.628 13.5257 19.037 13.3341 18.2451C13.1954 17.6719 13.1815 17.0618 13.1702 16.4669C13.1475 15.2556 13.1639 14.043 13.1639 12.8304C13.1614 12.8304 13.1588 12.8304 13.1563 12.8304ZM15.9211 13.1215C15.9211 14.5527 15.9236 15.9839 15.9173 17.4151C15.916 17.5702 15.9715 17.6706 16.0711 17.7825C16.38 18.1295 16.7695 18.2057 17.1982 18.1473C17.6419 18.0875 17.9962 17.7545 18.0252 17.3757C18.0529 16.9995 18.0731 16.622 18.0744 16.2445C18.0794 14.3798 18.0807 12.5139 18.0744 10.6493C18.0731 10.0837 18.0517 9.51677 18.0265 8.95115C18.0025 8.40714 17.8525 8.21267 17.3469 8.0487C17.2297 8.01057 17.1061 7.98388 16.9838 7.9699C16.4934 7.91143 15.9223 8.36901 15.9211 8.82659C15.9198 10.2578 15.9223 11.6903 15.9211 13.1215Z" fill="#EF570C"/>
<path d="M28.126 5.8291C29.0287 5.8291 29.8936 5.8291 30.7761 5.8291C30.7761 10.6578 30.7761 15.4777 30.7761 20.3115C29.9024 20.3115 29.0312 20.3115 28.126 20.3115C28.126 19.8361 28.126 19.3595 28.126 18.8117C28 18.8981 27.9268 18.9413 27.86 18.9934C27.3684 19.376 26.8981 19.7904 26.38 20.1336C25.8555 20.4818 25.2378 20.5225 24.6238 20.4907C24.0817 20.4615 23.7678 20.0853 23.4854 19.6798C23.2673 19.3658 23.174 19.0265 23.1765 18.6261C23.1904 16.1539 23.179 13.683 23.1702 11.2108C23.1639 9.51135 23.1488 7.81068 23.1387 6.11128C23.1387 6.02612 23.1387 5.93968 23.1387 5.838C24.0287 5.838 24.9062 5.838 25.8152 5.838C25.8152 6.01341 25.8152 6.19135 25.8152 6.3693C25.8177 9.54821 25.8202 12.7284 25.8265 15.9073C25.8278 16.3318 25.8429 16.7564 25.8593 17.1809C25.8832 17.8177 26.1656 17.9715 26.7758 17.8253C27.2562 17.7097 27.6054 17.3843 27.9281 17.022C28.0857 16.8453 28.1298 16.6585 28.1298 16.4259C28.1235 13.0017 28.126 9.57744 28.126 6.15195C28.126 6.05281 28.126 5.95239 28.126 5.8291Z" fill="#EF570C"/>
<path d="M20.7497 36.6432C20.7497 35.5425 20.7572 34.4405 20.7434 33.3397C20.7408 33.1288 20.8114 33.0169 20.9804 32.9152C21.2489 32.7525 21.5237 32.6546 21.8414 32.689C22.1742 32.7246 22.376 32.9254 22.4314 33.233C22.5058 33.6562 22.5676 34.0871 22.5726 34.5155C22.589 36.0179 22.5852 37.5203 22.5751 39.0214C22.5726 39.3964 22.5235 39.7713 22.4856 40.1463C22.4251 40.7411 22.0255 40.8759 21.5552 40.7564C21.3119 40.6941 21.0926 40.5174 20.8833 40.3624C20.8076 40.3064 20.7585 40.1666 20.7572 40.0649C20.7459 38.9235 20.7497 37.7834 20.7497 36.6432Z" fill="#EF570C"/>
<path d="M30.4886 35.0724C29.8771 35.0724 29.2871 35.0724 28.6302 35.0724C28.6782 34.475 28.6857 33.8865 28.7803 33.312C28.8937 32.6205 29.8506 32.5557 30.2566 32.9281C30.365 33.0273 30.4091 33.2141 30.447 33.3704C30.5819 33.9259 30.5806 34.4877 30.4886 35.0724Z" fill="#EF570C"/>
</svg>
